<svg viewBox="0 0 200 200" xmlns="http://www.w3.org/2000/svg">
  <rect width="200" height="200" rx="34" fill="#FFFFFF"/>
  <path d="M100 38 C82 26 58 24 42 30 L42 46 C58 40 82 42 100 54 Z" fill="#F2793A"/>
  <path d="M100 38 C118 26 142 24 158 30 L158 46 C142 40 118 42 100 54 Z" fill="#1596D6"/>
  <path d="M100 52 C86 42 56 40 34 48 L34 150 C56 142 86 144 100 154 Z" fill="#0A1F44"/>
  <path d="M100 52 C114 42 144 40 166 48 L166 150 C144 142 114 144 100 154 Z" fill="#0A1F44"/>
  <rect x="97" y="50" width="6" height="106" fill="#F2793A"/>
  <path d="M34 96 C22 88 14 92 12 104 C10 116 16 128 26 134 C22 140 22 148 28 152 C34 156 42 154 46 148 L46 108 C44 100 40 96 34 96 Z" fill="#FFFFFF"/>
  <path d="M166 96 C178 88 186 92 188 104 C190 116 184 128 174 134 C178 140 178 148 172 152 C166 156 158 154 154 148 L154 108 C156 100 160 96 166 96 Z" fill="#FFFFFF"/>
</svg>
